<?xml version="1.0" encoding="utf-8"?><svg xmlns="http://www.w3.org/2000/svg" xmlns:xlink="http://www.w3.org/1999/xlink" width="2984" height="807" preserveAspectRatio="xMidYMid" viewBox="0 0 2984 807" style="z-index:1;margin-right:-2px;display:block;background-repeat-y:initial;background-repeat-x:initial;animation-play-state:paused" ><g transform="translate(1492,403.5) scale(1,1) translate(-1492,-403.5)" style="transform:matrix(1, 0, 0, 1, 0, 0);animation-play-state:paused" ><defs style="animation-play-state:paused" ><path id="path-f3ig84kdzxq-1" d="M-35 -35L35 -35L35 35L-35 35Z" fill="none" stroke="inherit" stroke-width="4.333333333333334" transform="scale(0.3)" style="transform:matrix(0.3, 0, 0, 0.3, 0, 0);animation-play-state:paused" ></path>

  
<path id="path-f3ig84kdzxq-2" d="M0 -37A37 37 0 0 1 0 37A37 37 0 0 1 0 -37" fill="none" stroke="inherit" stroke-width="4.333333333333334" transform="scale(0.3)" style="transform:matrix(0.3, 0, 0, 0.3, 0, 0);animation-play-state:paused" ></path>

  
<path id="path-f3ig84kdzxq-3" d="M0 -34.641L40 34.641L-40 34.641Z" fill="none" stroke="inherit" stroke-width="4.333333333333334" transform="scale(0.3)" style="transform:matrix(0.3, 0, 0, 0.3, 0, 0);animation-play-state:paused" ></path></defs>
<path id="path0" d="M 116.86853613619753 607.2350980923809
c 0 28.400527580108076 -6.949065258962613 8.157598347477851 -15.106663606440465 8.157598347477851
S 86.65520892331661 635.6356256724889 86.65520892331661 607.2350980923809
s 6.949065258962613 -8.157598347477851 15.106663606440465 -8.157598347477851
S 116.86853613619753 578.8345705122729 116.86853613619753 607.2350980923809
z" fill="none" stroke="none" style="animation-play-state:paused" ></path>


<use xlink:href="#path-f3ig84kdzxq-3" x="0" y="0" stroke="#210070" transform="translate(116.8095474243164 611.3868408203125)" style="animation-play-state:paused" ></use>
<path id="path1" d="M 153.67411231303936 727.0437143523811
c 0 56.98780501749665 -13.943824631940668 16.368837611408612 -30.31266224334928 16.368837611408612
S 93.04878782634081 784.0315193698777 93.04878782634081 727.0437143523811
s 13.943824631940668 -16.368837611408612 30.31266224334928 -16.368837611408612
S 153.67411231303936 670.0559093348845 153.67411231303936 727.0437143523811
z" fill="none" stroke="none" style="animation-play-state:paused" ></path>


<use xlink:href="#path-f3ig84kdzxq-1" x="0" y="0" stroke="#f49f1c" transform="translate(153.48544311523438 737.3152465820312)" style="animation-play-state:paused" ></use>
<path id="path2" d="M 314.62969952606977 771.0687310742251
c 0 59.831752889069314 -14.639684217538235 17.185716255370973 -31.82540047290921 17.185716255370973
S 250.97889858025133 830.9004839632944 250.97889858025133 771.0687310742251
s 14.639684217538235 -17.185716255370973 31.82540047290921 -17.185716255370973
S 314.62969952606977 711.2369781851557 314.62969952606977 771.0687310742251
z" fill="none" stroke="none" style="animation-play-state:paused" ></path>


<use xlink:href="#path-f3ig84kdzxq-3" x="0" y="0" stroke="#210070" transform="translate(257.588623046875 802.985107421875)" style="animation-play-state:paused" ></use>
<path id="path3" d="M 375.0256795375037 757.5484495115602
c 0 65.13287702876389 -15.936767783633714 18.708379572091754 -34.64514735572547 18.708379572091754
S 305.73538482605284 822.6813265403241 305.73538482605284 757.5484495115602
s 15.936767783633714 -18.708379572091754 34.64514735572547 -18.708379572091754
S 375.0256795375037 692.4155724827963 375.0256795375037 757.5484495115602
z" fill="none" stroke="none" style="animation-play-state:paused" ></path>


<use xlink:href="#path-f3ig84kdzxq-3" x="0" y="0" stroke="#f49f1c" transform="translate(361.4674072265625 789.0851440429688)" style="animation-play-state:paused" ></use>
<path id="path4" d="M 448.6695014576387 644.9594795760622
c 0 30.763926731750928 -7.52734377479012 8.836447039971011 -16.36379081476113 8.836447039971011
S 415.9419198281164 675.7234063078131 415.9419198281164 644.9594795760622
s 7.52734377479012 -8.836447039971011 16.36379081476113 -8.836447039971011
S 448.6695014576387 614.1955528443114 448.6695014576387 644.9594795760622
z" fill="none" stroke="none" style="animation-play-state:paused" ></path>


<use xlink:href="#path-f3ig84kdzxq-1" x="0" y="0" stroke="#210070" transform="translate(431.2947692871094 653.888671875)" style="animation-play-state:paused" ></use>
<path id="path5" d="M 547.2468343529373 224.54766649974886
c 0 44.394094981665624 -10.86238494232244 12.75149536707417 -23.61388030939661 12.75149536707417
S 500.0190737341441 268.94176148141446 500.0190737341441 224.54766649974886
s 10.86238494232244 -12.75149536707417 23.61388030939661 -12.75149536707417
S 547.2468343529373 180.15357151808323 547.2468343529373 224.54766649974886
z" fill="none" stroke="none" style="animation-play-state:paused" ></path>


<use xlink:href="#path-f3ig84kdzxq-3" x="0" y="0" stroke="#210070" transform="translate(533.6123046875 242.3015899658203)" style="animation-play-state:paused" ></use>
<path id="path6" d="M 656.241260238628 561.1876831223676
c 0 20.29353166224606 -4.9654385982091425 5.8289931370281245 -10.794431735237266 5.8289931370281245
S 634.6523967681535 581.4812147846137 634.6523967681535 561.1876831223676
s 4.9654385982091425 -5.8289931370281245 10.794431735237266 -5.8289931370281245
S 656.241260238628 540.8941514601215 656.241260238628 561.1876831223676
z" fill="none" stroke="none" style="animation-play-state:paused" ></path>


<use xlink:href="#path-f3ig84kdzxq-2" x="0" y="0" stroke="#210070" transform="translate(656.2406616210938 561.4970092773438)" style="animation-play-state:paused" ></use>
<path id="path7" d="M 692.8265819053187 450.4161425045947
c 0 35.515744427136255 -8.690022572597167 10.201330846092329 -18.891353418689498 10.201330846092329
S 655.0438750679397 485.93188693173096 655.0438750679397 450.4161425045947
s 8.690022572597167 -10.201330846092329 18.891353418689498 -10.201330846092329
S 692.8265819053187 414.9003980774584 692.8265819053187 450.4161425045947
z" fill="none" stroke="none" style="animation-play-state:paused" ></path>


<use xlink:href="#path-f3ig84kdzxq-2" x="0" y="0" stroke="#210070" transform="translate(672.1549682617188 460.86199951171875)" style="animation-play-state:paused" ></use>
<path id="path8" d="M 811.0021371002794 375.87844955699177
c 0 61.03680496419212 -14.934537384855517 17.53184823439561 -32.46638561925113 17.53184823439561
S 746.0693658617771 436.9152545211839 746.0693658617771 375.87844955699177
s 14.934537384855517 -17.53184823439561 32.46638561925113 -17.53184823439561
S 811.0021371002794 314.84164459279964 811.0021371002794 375.87844955699177
z" fill="none" stroke="none" style="animation-play-state:paused" ></path>


<use xlink:href="#path-f3ig84kdzxq-2" x="0" y="0" stroke="#f49f1c" transform="translate(795.7325439453125 403.2860107421875)" style="animation-play-state:paused" ></use>
<path id="path9" d="M 917.830043267457 149.90591265614768
c 0 23.55650790937989 -5.763826403358908 6.7662309952474144 -12.530057398606322 6.7662309952474144
S 892.7699284702443 173.46242056552757 892.7699284702443 149.90591265614768
s 5.763826403358908 -6.7662309952474144 12.530057398606322 -6.7662309952474144
S 917.830043267457 126.34940474676779 917.830043267457 149.90591265614768
z" fill="none" stroke="none" style="animation-play-state:paused" ></path>


<use xlink:href="#path-f3ig84kdzxq-3" x="0" y="0" stroke="#210070" transform="translate(903.1664428710938 157.17984008789062)" style="animation-play-state:paused" ></use>
<path id="path10" d="M 1012.0002252626945 35.91752476986872
c 0 42.92621573519743 -10.503222999037668 12.329870477131179 -22.833093476168848 12.329870477131179
S 966.3340383103567 78.84374050506615 966.3340383103567 35.91752476986872
s 10.503222999037668 -12.329870477131179 22.833093476168848 -12.329870477131179
S 1012.0002252626945 -7.008690965328711 1012.0002252626945 35.91752476986872
z" fill="none" stroke="none" style="animation-play-state:paused" ></path>


<use xlink:href="#path-f3ig84kdzxq-1" x="0" y="0" stroke="#210070" transform="translate(1006.3729858398438 58.67988204956055)" style="animation-play-state:paused" ></use>
<path id="path11" d="M 1105.6398012566497 295.55352263941813
c 0 42.90436930746776 -10.497877596508069 12.323595439379039 -22.82147303588711 12.323595439379039
S 1059.9968551848756 338.45789194688587 1059.9968551848756 295.55352263941813
s 10.497877596508069 -12.323595439379039 22.82147303588711 -12.323595439379039
S 1105.6398012566497 252.64915333195037 1105.6398012566497 295.55352263941813
z" fill="none" stroke="none" style="animation-play-state:paused" ></path>


<use xlink:href="#path-f3ig84kdzxq-1" x="0" y="0" stroke="#f49f1c" transform="translate(1104.4791259765625 313.171630859375)" style="animation-play-state:paused" ></use>
<path id="path12" d="M 1203.0590612342503 541.5973459108834
c 0 44.461437446079096 -10.878862353827863 12.770838415363146 -23.649700769191007 12.770838415363146
S 1155.7596596958683 586.0587833569625 1155.7596596958683 541.5973459108834
s 10.878862353827863 -12.770838415363146 23.649700769191007 -12.770838415363146
S 1203.0590612342503 497.1359084648043 1203.0590612342503 541.5973459108834
z" fill="none" stroke="none" style="animation-play-state:paused" ></path>


<use xlink:href="#path-f3ig84kdzxq-1" x="0" y="0" stroke="#f49f1c" transform="translate(1189.455322265625 559.4219360351562)" style="animation-play-state:paused" ></use>
<path id="path13" d="M 1310.606175929931 144.25643168009435
c 0 54.90162953481247 -13.433377439369007 15.76961699404188 -29.202994433410886 15.76961699404188
S 1252.2001870631093 199.1580612149068 1252.2001870631093 144.25643168009435
s 13.433377439369007 -15.76961699404188 29.202994433410886 -15.76961699404188
S 1310.606175929931 89.35480214528188 1310.606175929931 144.25643168009435
z" fill="none" stroke="none" style="animation-play-state:paused" ></path>


<use xlink:href="#path-f3ig84kdzxq-2" x="0" y="0" stroke="#f49f1c" transform="translate(1310.5899658203125 147.39976501464844)" style="animation-play-state:paused" ></use>
<path id="path14" d="M 1382.5708546877986 294.529793638371
c 0 24.152154850701297 -5.909569803894997 6.937321074137607 -12.846890878032603 6.937321074137607
S 1356.8770729317334 318.68194848907234 1356.8770729317334 294.529793638371
s 5.909569803894997 -6.937321074137607 12.846890878032603 -6.937321074137607
S 1382.5708546877986 270.3776387876697 1382.5708546877986 294.529793638371
z" fill="none" stroke="none" style="animation-play-state:paused" ></path>


<use xlink:href="#path-f3ig84kdzxq-2" x="0" y="0" stroke="#210070" transform="translate(1382.5672607421875 295.4149169921875)" style="animation-play-state:paused" ></use>
<path id="path15" d="M 1482.2452965022494 207.94444231973847
c 0 39.37169481695399 -9.633499795637677 11.30889106444423 -20.942390860081908 11.30889106444423
S 1440.3605147820854 247.31613713669248 1440.3605147820854 207.94444231973847
s 9.633499795637677 -11.30889106444423 20.942390860081908 -11.30889106444423
S 1482.2452965022494 168.57274750278447 1482.2452965022494 207.94444231973847
z" fill="none" stroke="none" style="animation-play-state:paused" ></path>


<use xlink:href="#path-f3ig84kdzxq-1" x="0" y="0" stroke="#210070" transform="translate(1454.0223388671875 222.4219207763672)" style="animation-play-state:paused" ></use>
<path id="path16" d="M 1516.9518265107813 466.06838830677003
c 0 33.42709303561087 -8.178969572543085 9.601399063420144 -17.78036863596323 9.601399063420144
S 1481.3910892388549 499.4954813423809 1481.3910892388549 466.06838830677003
s 8.178969572543085 -9.601399063420144 17.78036863596323 -9.601399063420144
S 1516.9518265107813 432.64129527115915 1516.9518265107813 466.06838830677003
z" fill="none" stroke="none" style="animation-play-state:paused" ></path>


<use xlink:href="#path-f3ig84kdzxq-3" x="0" y="0" stroke="#210070" transform="translate(1511.2811279296875 483.1797790527344)" style="animation-play-state:paused" ></use>
<path id="path17" d="M 1625.8210080500476 466.0748461080899
c 0 18.92363557521984 -4.630251257766556 5.435512346073785 -10.065763603840342 5.435512346073785
S 1605.6894808423667 484.99848168330976 1605.6894808423667 466.0748461080899
s 4.630251257766556 -5.435512346073785 10.065763603840342 -5.435512346073785
S 1625.8210080500476 447.15121053287004 1625.8210080500476 466.0748461080899
z" fill="none" stroke="none" style="animation-play-state:paused" ></path>


<use xlink:href="#path-f3ig84kdzxq-3" x="0" y="0" stroke="#210070" transform="translate(1625.7252197265625 470.1805725097656)" style="animation-play-state:paused" ></use>
<path id="path18" d="M 1748.1532412529025 296.9861027569743
c 0 58.3965041820604 -14.288506342419032 16.77346396718756 -31.061970309606593 16.77346396718756
S 1686.0293006336894 355.38260693903464 1686.0293006336894 296.9861027569743
s 14.288506342419032 -16.77346396718756 31.061970309606593 -16.77346396718756
S 1748.1532412529025 238.58959857491388 1748.1532412529025 296.9861027569743
z" fill="none" stroke="none" style="animation-play-state:paused" ></path>


<use xlink:href="#path-f3ig84kdzxq-2" x="0" y="0" stroke="#210070" transform="translate(1748.0531005859375 304.7972106933594)" style="animation-play-state:paused" ></use>
<path id="path19" d="M 1870.930863454349 699.4030136399568
c 0 40.67488568375826 -9.952365646025957 11.683211845334819 -21.635577491360777 11.683211845334819
S 1827.6597084716273 740.0778993237151 1827.6597084716273 699.4030136399568
s 9.952365646025957 -11.683211845334819 21.635577491360777 -11.683211845334819
S 1870.930863454349 658.7281279561986 1870.930863454349 699.4030136399568
z" fill="none" stroke="none" style="animation-play-state:paused" ></path>


<use xlink:href="#path-f3ig84kdzxq-3" x="0" y="0" stroke="#210070" transform="translate(1870.6678466796875 709.1978149414062)" style="animation-play-state:paused" ></use>
<path id="path20" d="M 1960.9123528233495 581.4745293485695
c 0 37.926912554790135 -9.279989242129501 10.893900414673762 -20.17388965680326 10.893900414673762
S 1920.5645735097428 619.4014419033597 1920.5645735097428 581.4745293485695
s 9.279989242129501 -10.893900414673762 20.17388965680326 -10.893900414673762
S 1960.9123528233495 543.5476167937793 1960.9123528233495 581.4745293485695
z" fill="none" stroke="none" style="animation-play-state:paused" ></path>


<use xlink:href="#path-f3ig84kdzxq-1" x="0" y="0" stroke="#210070" transform="translate(1960.526123046875 592.4584350585938)" style="animation-play-state:paused" ></use>
<path id="path21" d="M 1976.4803263167744 644.4832368320057
c 0 24.061214054558484 -5.887318332498352 6.911199781628501 -12.798518114126853 6.911199781628501
S 1950.8832900885207 668.5444508865642 1950.8832900885207 644.4832368320057
s 5.887318332498352 -6.911199781628501 12.798518114126853 -6.911199781628501
S 1976.4803263167744 620.4220227774472 1976.4803263167744 644.4832368320057
z" fill="none" stroke="none" style="animation-play-state:paused" ></path>


<use xlink:href="#path-f3ig84kdzxq-3" x="0" y="0" stroke="#f49f1c" transform="translate(1958.5870361328125 653.8450317382812)" style="animation-play-state:paused" ></use>
<path id="path22" d="M 2091.2698439413375 235.2201228073931
c 0 21.258823981981152 -5.201627144527302 6.106257952271182 -11.307885096798485 6.106257952271182
S 2068.6540737477403 256.4789467893743 2068.6540737477403 235.2201228073931
s 5.201627144527302 -6.106257952271182 11.307885096798485 -6.106257952271182
S 2091.2698439413375 213.96129882541194 2091.2698439413375 235.2201228073931
z" fill="none" stroke="none" style="animation-play-state:paused" ></path>


<use xlink:href="#path-f3ig84kdzxq-2" x="0" y="0" stroke="#210070" transform="translate(2089.404052734375 246.45086669921875)" style="animation-play-state:paused" ></use>
<path id="path23" d="M 2177.146597894655 32.60956048751505
c 0 48.111707467263194 -11.77201352922397 13.819320229958578 -25.591333759182547 13.819320229958578
S 2125.96393037629 80.72126795477824 2125.96393037629 32.60956048751505
s 11.77201352922397 -13.819320229958578 25.591333759182547 -13.819320229958578
S 2177.146597894655 -15.502146979748147 2177.146597894655 32.60956048751505
z" fill="none" stroke="none" style="animation-play-state:paused" ></path>


<use xlink:href="#path-f3ig84kdzxq-1" x="0" y="0" stroke="#210070" transform="translate(2150.09521484375 46.55278015136719)" style="animation-play-state:paused" ></use>
<path id="path24" d="M 2338.540109971187 595.977886465288
c 0 64.95360225758125 -15.892902680046475 18.65688575483717 -34.549788434883645 18.65688575483717
S 2269.4405331014195 660.9314887228692 2269.4405331014195 595.977886465288
s 15.892902680046475 -18.65688575483717 34.549788434883645 -18.65688575483717
S 2338.540109971187 531.0242842077067 2338.540109971187 595.977886465288
z" fill="none" stroke="none" style="animation-play-state:paused" ></path>


<use xlink:href="#path-f3ig84kdzxq-1" x="0" y="0" stroke="#210070" transform="translate(2336.9228515625 621.9623413085938)" style="animation-play-state:paused" ></use>
<path id="path25" d="M 2357.859980124974 154.54353146774918
c 0 63.81528649849935 -15.614378611334946 18.329922717654068 -33.94430132898901 18.329922717654068
S 2289.9713774669963 218.35881796624852 2289.9713774669963 154.54353146774918
s 15.614378611334946 -18.329922717654068 33.94430132898901 -18.329922717654068
S 2357.859980124974 90.72824496924983 2357.859980124974 154.54353146774918
z" fill="none" stroke="none" style="animation-play-state:paused" ></path>


<use xlink:href="#path-f3ig84kdzxq-1" x="0" y="0" stroke="#210070" transform="translate(2331.2353515625 175.02137756347656)" style="animation-play-state:paused" ></use>
<path id="path26" d="M 2445.241417496865 214.4957662936727
c 0 39.553523623961205 -9.677989822884124 11.361118487733536 -21.03910831061766 11.361118487733536
S 2403.163200875629 254.0492899176339 2403.163200875629 214.4957662936727
s 9.677989822884124 -11.361118487733536 21.03910831061766 -11.361118487733536
S 2445.241417496865 174.94224266971148 2445.241417496865 214.4957662936727
z" fill="none" stroke="none" style="animation-play-state:paused" ></path>


<use xlink:href="#path-f3ig84kdzxq-3" x="0" y="0" stroke="#f49f1c" transform="translate(2409.2216796875 235.11483764648438)" style="animation-play-state:paused" ></use>
<path id="path27" d="M 2596.1033366864995 128.6081181583242
c 0 29.695999463850097 -7.2660424220058735 8.529701973659071 -15.795744395664943 8.529701973659071
S 2564.51184789517 158.3041176221743 2564.51184789517 128.6081181583242
s 7.2660424220058735 -8.529701973659071 15.795744395664943 -8.529701973659071
S 2596.1033366864995 98.9121186944741 2596.1033366864995 128.6081181583242
z" fill="none" stroke="none" style="animation-play-state:paused" ></path>


<use xlink:href="#path-f3ig84kdzxq-3" x="0" y="0" stroke="#210070" transform="translate(2571.167724609375 142.60061645507812)" style="animation-play-state:paused" ></use>
<path id="path28" d="M 2696.4334672355735 735.6214531844796
c 0 56.32496948406429 -13.781641469505091 16.178448681592936 -29.960090151098026 16.178448681592936
S 2636.5132869333775 791.9464226685438 2636.5132869333775 735.6214531844796
s 13.781641469505091 -16.178448681592936 29.960090151098026 -16.178448681592936
S 2696.4334672355735 679.2964837004154 2696.4334672355735 735.6214531844796
z" fill="none" stroke="none" style="animation-play-state:paused" ></path>


<use xlink:href="#path-f3ig84kdzxq-3" x="0" y="0" stroke="#210070" transform="translate(2696.280029296875 744.91943359375)" style="animation-play-state:paused" ></use>
<path id="path29" d="M 2753.928592659948 405.8445375341283
c 0 27.403017414508383 -6.704993622698859 7.871079470124748 -14.576073092823608 7.871079470124748
S 2724.776446474301 433.24755494863666 2724.776446474301 405.8445375341283
s 6.704993622698859 -7.871079470124748 14.576073092823608 -7.871079470124748
S 2753.928592659948 378.4415201196199 2753.928592659948 405.8445375341283
z" fill="none" stroke="none" style="animation-play-state:paused" ></path>


<use xlink:href="#path-f3ig84kdzxq-3" x="0" y="0" stroke="#210070" transform="translate(2738.7958984375 413.7475280761719)" style="animation-play-state:paused" ></use>
<path id="path30" d="M 2898.7104239234104 258.6614828605092
c 0 59.71784342882114 -14.61181275386049 17.152997580618838 -31.76481033447933 17.152997580618838
S 2835.1808032544513 318.3793262893303 2835.1808032544513 258.6614828605092
s 14.61181275386049 -17.152997580618838 31.76481033447933 -17.152997580618838
S 2898.7104239234104 198.94363943168804 2898.7104239234104 258.6614828605092
z" fill="none" stroke="none" style="animation-play-state:paused" ></path>


<use xlink:href="#path-f3ig84kdzxq-1" x="0" y="0" stroke="#210070" transform="translate(2897.4384765625 281.3530578613281)" style="animation-play-state:paused" ></use>
<path id="path31" d="M 2927.6367049290698 243.36690430458634
c 0 25.074447688451606 -6.135237200365817 7.202234974342483 -13.3374721747083 7.202234974342483
S 2900.9617605796534 268.4413519930379 2900.9617605796534 243.36690430458634
s 6.135237200365817 -7.202234974342483 13.3374721747083 -7.202234974342483
S 2927.6367049290698 218.29245661613473 2927.6367049290698 243.36690430458634
z" fill="none" stroke="none" style="animation-play-state:paused" ></path>


<use xlink:href="#path-f3ig84kdzxq-3" x="0" y="0" stroke="#210070" transform="translate(2910.408935546875 252.0430450439453)" style="animation-play-state:paused" ></use></g></svg>